<?xml version="1.0" encoding="UTF-8" standalone="no"?>
<svg
   xmlns:dc="http://purl.org/dc/elements/1.1/"
   xmlns:cc="http://creativecommons.org/ns#"
   xmlns:rdf="http://www.w3.org/1999/02/22-rdf-syntax-ns#"
   xmlns:svg="http://www.w3.org/2000/svg"
   xmlns="http://www.w3.org/2000/svg"
   xmlns:sodipodi="http://sodipodi.sourceforge.net/DTD/sodipodi-0.dtd"
   xmlns:inkscape="http://www.inkscape.org/namespaces/inkscape"
   width="1023.9999"
   height="207"
   viewBox="0 0 270.93333 54.76875"
   version="1.1"
   id="svg8"
   inkscape:version="0.92.4 (5da689c313, 2019-01-14)"
   sodipodi:docname="lcars.svg"
   inkscape:export-filename="LCARS.png"
   inkscape:export-xdpi="96"
   inkscape:export-ydpi="96">
  <metadata
     id="metadata3825">
    <rdf:RDF>
      <cc:Work
         rdf:about="">
        <dc:format>image/svg+xml</dc:format>
        <dc:type
           rdf:resource="http://purl.org/dc/dcmitype/StillImage" />
        <dc:title></dc:title>
      </cc:Work>
    </rdf:RDF>
  </metadata>
  <defs
     id="defs3823" />
  <sodipodi:namedview
     pagecolor="#ffffff"
     bordercolor="#666666"
     borderopacity="1"
     objecttolerance="10"
     gridtolerance="10"
     guidetolerance="10"
     inkscape:pageopacity="0"
     inkscape:pageshadow="2"
     inkscape:window-width="1920"
     inkscape:window-height="1137"
     id="namedview3821"
     showgrid="false"
     fit-margin-top="0"
     fit-margin-left="0"
     fit-margin-right="0"
     fit-margin-bottom="0"
     inkscape:zoom="0.86915208"
     inkscape:cx="609.30538"
     inkscape:cy="-91.738229"
     inkscape:window-x="-8"
     inkscape:window-y="-8"
     inkscape:window-maximized="1"
     inkscape:current-layer="layer1" />
  <g
     inkscape:label="Layer 1"
     inkscape:groupmode="layer"
     id="layer1"
     transform="translate(-56.545246,-133.10953)">
    <rect
       id="rect9204"
       width="270.93332"
       height="203.2"
       x="56.545246"
       y="123.58454"
       style="fill-opacity:0" />
    <g
       id="g8987">
      <g
         id="g8556">
        <g
           id="g6803">
          <rect
             y="133.10953"
             x="56.545246"
             height="23.8125"
             width="33.866665"
             id="rect4509"
             style="color:#000000;clip-rule:nonzero;display:inline;overflow:visible;visibility:visible;opacity:1;isolation:auto;mix-blend-mode:normal;color-interpolation:sRGB;color-interpolation-filters:linearRGB;solid-color:#000000;solid-opacity:1;fill:#cc99cc;fill-opacity:1;fill-rule:evenodd;stroke:none;stroke-width:0.26458332;stroke-linecap:butt;stroke-linejoin:round;stroke-miterlimit:4;stroke-dasharray:none;stroke-dashoffset:0;stroke-opacity:0.8;color-rendering:auto;image-rendering:auto;shape-rendering:auto;text-rendering:auto;enable-background:accumulate" />
          <path
             sodipodi:nodetypes="ccccccccc"
             inkscape:connector-curvature="0"
             id="rect4511"
             transform="matrix(0.26458333,0,0,0.26458333,56.545246,123.58453)"
             d="m 0,131 v 50 c 0,34 41.000001,62 88.000001,62 H 458 V 227 H 173.32344 C 145,227 128,215 128,197.1042 V 131 Z"
             style="color:#000000;clip-rule:nonzero;display:inline;overflow:visible;visibility:visible;opacity:1;isolation:auto;mix-blend-mode:normal;color-interpolation:sRGB;color-interpolation-filters:linearRGB;solid-color:#000000;solid-opacity:1;fill:#9999ff;fill-opacity:1;fill-rule:evenodd;stroke:none;stroke-width:1;stroke-linecap:butt;stroke-linejoin:round;stroke-miterlimit:4;stroke-dasharray:none;stroke-dashoffset:0;stroke-opacity:0.8;color-rendering:auto;image-rendering:auto;shape-rendering:auto;text-rendering:auto;enable-background:accumulate" />
          <rect
             style="color:#000000;clip-rule:nonzero;display:inline;overflow:visible;visibility:visible;opacity:1;isolation:auto;mix-blend-mode:normal;color-interpolation:sRGB;color-interpolation-filters:linearRGB;solid-color:#000000;solid-opacity:1;fill:#ff9900;fill-opacity:1;fill-rule:evenodd;stroke:none;stroke-width:0.26458332;stroke-linecap:butt;stroke-linejoin:round;stroke-miterlimit:4;stroke-dasharray:none;stroke-dashoffset:0;stroke-opacity:0.8;color-rendering:auto;image-rendering:auto;shape-rendering:auto;text-rendering:auto;enable-background:accumulate"
             id="rect4515"
             width="7.1437535"
             height="4.2333326"
             x="179.04733"
             y="183.64494" />
          <rect
             y="183.64494"
             x="187.51399"
             height="4.2333326"
             width="39.95208"
             id="rect4517"
             style="color:#000000;clip-rule:nonzero;display:inline;overflow:visible;visibility:visible;opacity:1;isolation:auto;mix-blend-mode:normal;color-interpolation:sRGB;color-interpolation-filters:linearRGB;solid-color:#000000;solid-opacity:1;fill:#cc99cc;fill-opacity:1;fill-rule:evenodd;stroke:none;stroke-width:0.26458332;stroke-linecap:butt;stroke-linejoin:round;stroke-miterlimit:4;stroke-dasharray:none;stroke-dashoffset:0;stroke-opacity:0.8;color-rendering:auto;image-rendering:auto;shape-rendering:auto;text-rendering:auto;enable-background:accumulate" />
          <rect
             style="color:#000000;clip-rule:nonzero;display:inline;overflow:visible;visibility:visible;opacity:1;isolation:auto;mix-blend-mode:normal;color-interpolation:sRGB;color-interpolation-filters:linearRGB;solid-color:#000000;solid-opacity:1;fill:#cc99cc;fill-opacity:1;fill-rule:evenodd;stroke:none;stroke-width:0.26458332;stroke-linecap:butt;stroke-linejoin:round;stroke-miterlimit:4;stroke-dasharray:none;stroke-dashoffset:0;stroke-opacity:0.8;color-rendering:auto;image-rendering:auto;shape-rendering:auto;text-rendering:auto;enable-background:accumulate"
             id="rect4523"
             width="89.164566"
             height="4.2333326"
             x="228.78899"
             y="183.64494" />
          <rect
             y="183.64494"
             x="319.27649"
             height="4.2333326"
             width="8.2020817"
             id="rect4525"
             style="color:#000000;clip-rule:nonzero;display:inline;overflow:visible;visibility:visible;opacity:1;isolation:auto;mix-blend-mode:normal;color-interpolation:sRGB;color-interpolation-filters:linearRGB;solid-color:#000000;solid-opacity:1;fill:#cc6666;fill-opacity:1;fill-rule:evenodd;stroke:none;stroke-width:0.26458332;stroke-linecap:butt;stroke-linejoin:round;stroke-miterlimit:4;stroke-dasharray:none;stroke-dashoffset:0;stroke-opacity:0.8;color-rendering:auto;image-rendering:auto;shape-rendering:auto;text-rendering:auto;enable-background:accumulate" />
          <g
             transform="translate(-0.36578767,0.00159361)"
             id="text4503"
             style="font-style:normal;font-variant:normal;font-weight:normal;font-stretch:normal;font-size:2.9765625px;line-height:6.61458302px;font-family:'Swiss911 XCm BT';-inkscape-font-specification:'Swiss911 XCm BT';text-align:center;letter-spacing:0px;word-spacing:0px;text-anchor:middle;fill:#000000;fill-opacity:1;stroke:none;stroke-width:0.26458332px;stroke-linecap:butt;stroke-linejoin:miter;stroke-opacity:1"
             aria-label="LCARS 40274">
            <path
               inkscape:connector-curvature="0"
               id="path4526"
               style="font-style:normal;font-variant:normal;font-weight:normal;font-stretch:normal;font-size:5.99722242px;line-height:6.61458302px;font-family:'Swiss911 UCm BT';-inkscape-font-specification:'Swiss911 UCm BT';text-align:start;letter-spacing:0.079375px;text-anchor:start;stroke-width:0.26458332px"
               d="m 65.199416,154.2746 v -4.31929 h 0.641305 v 3.72484 h 0.781864 v 0.59445 z" />
            <path
               inkscape:connector-curvature="0"
               id="path4528"
               style="font-style:normal;font-variant:normal;font-weight:normal;font-stretch:normal;font-size:5.99722242px;line-height:6.61458302px;font-family:'Swiss911 UCm BT';-inkscape-font-specification:'Swiss911 UCm BT';text-align:start;letter-spacing:0.079375px;text-anchor:start;stroke-width:0.26458332px"
               d="m 67.814726,150.64054 q 0,-0.14349 -0.04392,-0.19913 -0.041,-0.0586 -0.14056,-0.0586 -0.09956,0 -0.143488,0.0586 -0.04392,0.0556 -0.04392,0.19913 v 2.9254 q 0,0.14642 0.04392,0.20498 0.04393,0.0586 0.143488,0.0586 0.09956,0 0.14056,-0.0586 0.04392,-0.0586 0.04392,-0.20498 v -0.96928 h 0.647161 v 0.94585 q 0,0.40704 -0.21084,0.61788 -0.210839,0.21084 -0.620806,0.21084 -0.412895,0 -0.623734,-0.21084 -0.21084,-0.21084 -0.21084,-0.61788 v -2.84926 q 0,-0.40704 0.21084,-0.61495 0.210839,-0.21084 0.623734,-0.21084 0.409967,0 0.620806,0.21084 0.21084,0.20791 0.21084,0.61495 v 0.858 h -0.647161 z" />
            <path
               inkscape:connector-curvature="0"
               id="path4530"
               style="font-style:normal;font-variant:normal;font-weight:normal;font-stretch:normal;font-size:5.99722242px;line-height:6.61458302px;font-family:'Swiss911 UCm BT';-inkscape-font-specification:'Swiss911 UCm BT';text-align:start;letter-spacing:0.079375px;text-anchor:start;stroke-width:0.26458332px"
               d="m 68.775529,154.2746 0.515386,-4.31929 h 0.978063 l 0.468533,4.31929 h -0.655947 l -0.131774,-1.16255 h -0.401182 l -0.137631,1.16255 z m 0.828717,-1.72186 h 0.29869 l -0.06735,-1.0747 q -0.0059,-0.14056 -0.0205,-0.32797 -0.01171,-0.18742 -0.04392,-0.54467 h -0.02928 q -0.0088,0.0937 -0.03221,0.4656 -0.01757,0.2577 -0.02928,0.41583 z" />
            <path
               inkscape:connector-curvature="0"
               id="path4532"
               style="font-style:normal;font-variant:normal;font-weight:normal;font-stretch:normal;font-size:5.99722242px;line-height:6.61458302px;font-family:'Swiss911 UCm BT';-inkscape-font-specification:'Swiss911 UCm BT';text-align:start;letter-spacing:0.079375px;text-anchor:start;stroke-width:0.26458332px"
               d="m 72.011645,151.4429 v -0.70573 q 0,-0.14349 -0.0615,-0.21377 -0.05857,-0.0703 -0.178628,-0.0703 h -0.14056 v 1.27383 h 0.14056 q 0.120061,0 0.178628,-0.0703 0.0615,-0.0703 0.0615,-0.21377 z m -1.021988,-1.48759 h 0.761366 q 0.480247,0 0.694015,0.18741 0.213768,0.18449 0.213768,0.60617 v 0.50367 q 0,0.33383 -0.149345,0.5066 -0.146416,0.16984 -0.486103,0.22548 v 0.0234 q 0.319188,0.006 0.477318,0.1552 0.15813,0.14642 0.15813,0.43925 v 0.88143 q 0,0.2899 0.02635,0.48317 0.02928,0.19034 0.08785,0.30748 h -0.679373 q -0.04393,-0.10249 -0.06442,-0.24598 -0.01757,-0.14642 -0.01757,-0.36604 v -0.19035 -0.94292 q 0,-0.13763 -0.08785,-0.20205 -0.08492,-0.0674 -0.266478,-0.0674 h -0.02636 v 2.01469 H 70.98965 Z" />
            <path
               inkscape:connector-curvature="0"
               id="path4534"
               style="font-style:normal;font-variant:normal;font-weight:normal;font-stretch:normal;font-size:5.99722242px;line-height:6.61458302px;font-family:'Swiss911 UCm BT';-inkscape-font-specification:'Swiss911 UCm BT';text-align:start;letter-spacing:0.079375px;text-anchor:start;stroke-width:0.26458332px"
               d="m 72.937307,150.69325 q 0,-0.40704 0.207912,-0.61495 0.21084,-0.21084 0.617878,-0.21084 0.412894,0 0.623734,0.21084 0.21084,0.20791 0.21084,0.61495 v 0.858 h -0.641304 v -0.91071 q 0,-0.14056 -0.04685,-0.19913 -0.04393,-0.0586 -0.146416,-0.0586 -0.09956,0 -0.143489,0.0586 -0.041,0.0556 -0.041,0.19913 v 0.3104 q 0,0.16106 0.0205,0.25769 0.0205,0.0966 0.06442,0.15813 l 0.699872,0.95757 q 0.131775,0.18156 0.181556,0.32797 0.05271,0.14642 0.05271,0.32212 v 0.56809 q 0,0.40704 -0.21084,0.61788 -0.21084,0.21084 -0.623734,0.21084 -0.407038,0 -0.617878,-0.20791 -0.207912,-0.21084 -0.207912,-0.62081 v -0.94585 h 0.641305 v 0.96928 q 0,0.14642 0.041,0.20498 0.04393,0.0586 0.143489,0.0586 0.102491,0 0.146416,-0.0586 0.04685,-0.0615 0.04685,-0.20498 v -0.44803 q 0,-0.0879 -0.02635,-0.16985 -0.02636,-0.082 -0.08199,-0.16106 l -0.732083,-1.01905 q -0.09371,-0.13178 -0.137631,-0.27234 -0.041,-0.14056 -0.041,-0.33383 z" />
            <path
               inkscape:connector-curvature="0"
               id="path4536"
               style="font-style:normal;font-variant:normal;font-weight:normal;font-stretch:normal;font-size:5.99722242px;line-height:6.61458302px;font-family:'Swiss911 UCm BT';-inkscape-font-specification:'Swiss911 UCm BT';text-align:start;letter-spacing:0.079375px;text-anchor:start;stroke-width:0.26458332px"
               d="m 76.870676,154.2746 v -1.0747 h -1.054199 v -0.48318 l 0.817004,-2.76141 h 0.881428 v 2.71749 h 0.269406 v 0.5271 h -0.269406 v 1.0747 z m -0.497816,-1.6018 h 0.524171 l 0.03514,-1.56373 q 0,-0.0498 0.03807,-0.4861 l 0.0088,-0.10835 h -0.05857 q -0.03221,0.18156 -0.06149,0.31626 -0.02636,0.1347 -0.05271,0.24012 z" />
            <path
               inkscape:connector-curvature="0"
               id="path4538"
               style="font-style:normal;font-variant:normal;font-weight:normal;font-stretch:normal;font-size:5.99722242px;line-height:6.61458302px;font-family:'Swiss911 UCm BT';-inkscape-font-specification:'Swiss911 UCm BT';text-align:start;letter-spacing:0.079375px;text-anchor:start;stroke-width:0.26458332px"
               d="m 78.67191,150.64054 v 2.9254 q 0,0.14642 0.04393,0.20498 0.04393,0.0586 0.143489,0.0586 0.09956,0 0.143488,-0.0586 0.04685,-0.0615 0.04685,-0.20498 v -2.9254 q 0,-0.14056 -0.04393,-0.19913 -0.04393,-0.0586 -0.146416,-0.0586 -0.09956,0 -0.143489,0.0586 -0.04393,0.0556 -0.04393,0.19913 z m -0.647161,0.0527 q 0,-0.40704 0.21084,-0.61495 0.213768,-0.21084 0.623735,-0.21084 0.409966,0 0.620806,0.21084 0.213768,0.20791 0.213768,0.61495 v 2.84926 q 0,0.40704 -0.213768,0.61788 -0.21084,0.21084 -0.620806,0.21084 -0.409967,0 -0.623735,-0.21084 -0.21084,-0.21084 -0.21084,-0.61788 z" />
            <path
               inkscape:connector-curvature="0"
               id="path4541"
               style="font-style:normal;font-variant:normal;font-weight:normal;font-stretch:normal;font-size:5.99722242px;line-height:6.61458302px;font-family:'Swiss911 UCm BT';-inkscape-font-specification:'Swiss911 UCm BT';text-align:start;letter-spacing:0.079375px;text-anchor:start;stroke-width:0.26458332px"
               d="m 80.798189,153.75043 0.939994,0.003 v 0.52125 h -1.669149 q -0.0059,-0.0439 -0.0088,-0.0908 0,-0.0498 0,-0.14349 0,-0.36018 0.09078,-0.69694 0.09078,-0.33676 0.327974,-0.80236 0.07028,-0.13471 0.216696,-0.38362 0.412895,-0.70572 0.412895,-1.15669 v -0.36604 q 0,-0.12885 -0.04393,-0.18156 -0.04393,-0.0527 -0.146417,-0.0527 -0.08492,0 -0.134703,0.0615 -0.04685,0.0615 -0.04685,0.17277 v 0.81993 h -0.647162 v -0.76136 q 0,-0.40411 0.219625,-0.61495 0.219625,-0.21084 0.638377,-0.21084 0.401181,0 0.606164,0.18448 0.204983,0.18449 0.204983,0.5476 v 0.52124 q 0,0.47439 -0.398253,1.18012 -0.06442,0.11128 -0.09371,0.16985 -0.275263,0.5066 -0.36897,0.77893 -0.09371,0.26941 -0.09956,0.50075 z" />
            <path
               inkscape:connector-curvature="0"
               id="path4543"
               style="font-style:normal;font-variant:normal;font-weight:normal;font-stretch:normal;font-size:5.99722242px;line-height:6.61458302px;font-family:'Swiss911 UCm BT';-inkscape-font-specification:'Swiss911 UCm BT';text-align:start;letter-spacing:0.079375px;text-anchor:start;stroke-width:0.26458332px"
               d="m 82.198241,154.2746 0.969277,-3.78926 h -1.121551 v -0.53003 h 1.765784 v 0.54174 l -0.919496,3.77755 z" />
            <path
               inkscape:connector-curvature="0"
               id="path4545"
               style="font-style:normal;font-variant:normal;font-weight:normal;font-stretch:normal;font-size:5.99722242px;line-height:6.61458302px;font-family:'Swiss911 UCm BT';-inkscape-font-specification:'Swiss911 UCm BT';text-align:start;letter-spacing:0.079375px;text-anchor:start;stroke-width:0.26458332px"
               d="m 85.106384,154.2746 v -1.0747 h -1.054199 v -0.48318 l 0.817004,-2.76141 h 0.881428 v 2.71749 h 0.269407 v 0.5271 h -0.269407 v 1.0747 z m -0.497816,-1.6018 h 0.524171 l 0.03514,-1.56373 q 0,-0.0498 0.03807,-0.4861 l 0.0088,-0.10835 h -0.05857 q -0.03221,0.18156 -0.06149,0.31626 -0.02636,0.1347 -0.05271,0.24012 z" />
          </g>
        </g>
      </g>
      <g
         id="g8227">
        <g
           id="g6782" />
      </g>
    </g>
  </g>
</svg>
